<?xml version="1.0" encoding="iso-8859-1"?>
<!-- Generator: Adobe Illustrator 19.0.0, SVG Export Plug-In . SVG Version: 6.00 Build 0)  -->
<svg version="1.1" id="Layer_1" xmlns="http://www.w3.org/2000/svg" xmlns:xlink="http://www.w3.org/1999/xlink" x="0px" y="0px"
	 viewBox="0 0 512 512" style="enable-background:new 0 0 512 512;" xml:space="preserve">
<path style="fill:#465123;" d="M478.609,500.87H33.391c-8.693-8.693-13.568-13.568-22.261-22.261V33.391
	c8.693-8.693,13.568-13.568,22.261-22.261h445.217c8.693,8.693,13.568,13.568,22.261,22.261v445.217
	C492.177,487.302,487.302,492.177,478.609,500.87z"/>
<path style="fill:#687B40;" d="M467.478,467.478H44.522V44.522h422.957V467.478z"/>
<path style="fill:#FFD34E;" d="M44.522,435.757l31.722,31.722H44.522V435.757z M44.522,76.243l31.722-31.722H44.522V76.243z
	 M467.478,467.478v-31.722l-31.722,31.722H467.478z M435.757,44.522l31.722,31.722V44.522H435.757z"/>
<path style="fill:#999999;" d="M422.957,339.478L422.957,339.478c6.822,3.41,11.13,10.382,11.13,18.009v56.465
	c0,11.12-9.015,20.135-20.135,20.135h-56.465c-7.627,0-14.599-4.309-18.009-11.13l0,0c-3.41-6.822-10.382-11.13-18.009-11.13
	H190.531c-7.627,0-14.599,4.309-18.009,11.13l0,0c-3.41,6.822-10.382,11.13-18.009,11.13H98.048
	c-11.12,0-20.135-9.015-20.135-20.135v-56.465c0-7.627,4.309-14.599,11.13-18.009l0,0c6.822-3.41,11.13-10.382,11.13-18.009V190.531
	c0-7.627-4.309-14.599-11.13-18.009l0,0c-6.822-3.41-11.13-10.382-11.13-18.009V98.048c0-11.12,9.015-20.135,20.135-20.135h56.465
	c7.627,0,14.599,4.309,18.009,11.13l0,0c3.41,6.822,10.382,11.13,18.009,11.13h130.938c7.627,0,14.599-4.309,18.009-11.13l0,0
	c3.41-6.822,10.382-11.13,18.009-11.13h56.465c11.12,0,20.135,9.015,20.135,20.135v56.465c0,7.627-4.309,14.599-11.13,18.009l0,0
	c-6.822,3.41-11.13,10.382-11.13,18.009v130.938C411.826,329.096,416.135,336.068,422.957,339.478z"/>
<path style="fill:#BFBFBF;" d="M333.913,356.174H178.087c-12.295,0-22.261-9.966-22.261-22.261V178.087
	c0-12.295,9.966-22.261,22.261-22.261h155.826c12.295,0,22.261,9.966,22.261,22.261v155.826
	C356.174,346.208,346.208,356.174,333.913,356.174z"/>
<path style="fill:#E2E2E2;" d="M322.783,333.913H155.826V178.087c0-12.295,9.966-22.261,22.261-22.261h155.826v166.957
	C333.913,328.93,328.93,333.913,322.783,333.913z"/>
<path style="fill:#999999;" d="M278.261,283.826h-44.522c-12.295,0-22.261-9.966-22.261-22.261v-11.13
	c0-12.295,9.966-22.261,22.261-22.261h44.522c12.295,0,22.261,9.966,22.261,22.261v11.13
	C300.522,273.86,290.556,283.826,278.261,283.826z"/>
<path style="fill:#FFD34E;" d="M200.348,5.565v33.391c0,3.073-2.492,5.565-5.565,5.565h-16.696c-3.073,0-5.565-2.492-5.565-5.565
	V5.565c0-3.073,2.492-5.565,5.565-5.565h16.696C197.856,0,200.348,2.492,200.348,5.565z M267.13,467.478h-16.696
	c-3.073,0-5.565,2.492-5.565,5.565v33.391c0,3.073,2.492,5.565,5.565,5.565h16.696c3.073,0,5.565-2.492,5.565-5.565v-33.391
	C272.696,469.97,270.204,467.478,267.13,467.478z M267.13,0h-16.696c-3.073,0-5.565,2.492-5.565,5.565v33.391
	c0,3.073,2.492,5.565,5.565,5.565h16.696c3.073,0,5.565-2.492,5.565-5.565V5.565C272.696,2.492,270.204,0,267.13,0z
	 M194.783,467.478h-16.696c-3.073,0-5.565,2.492-5.565,5.565v33.391c0,3.073,2.492,5.565,5.565,5.565h16.696
	c3.073,0,5.565-2.492,5.565-5.565v-33.391C200.348,469.97,197.856,467.478,194.783,467.478z M339.478,467.478h-16.696
	c-3.073,0-5.565,2.492-5.565,5.565v33.391c0,3.073,2.492,5.565,5.565,5.565h16.696c3.073,0,5.565-2.492,5.565-5.565v-33.391
	C345.043,469.97,342.551,467.478,339.478,467.478z M339.478,0h-16.696c-3.073,0-5.565,2.492-5.565,5.565v33.391
	c0,3.073,2.492,5.565,5.565,5.565h16.696c3.073,0,5.565-2.492,5.565-5.565V5.565C345.043,2.492,342.551,0,339.478,0z
	 M38.957,317.217H5.565c-3.073,0-5.565,2.492-5.565,5.565v16.696c0,3.073,2.492,5.565,5.565,5.565h33.391
	c3.073,0,5.565-2.492,5.565-5.565v-16.696C44.522,319.71,42.03,317.217,38.957,317.217z M38.957,244.87H5.565
	c-3.073,0-5.565,2.492-5.565,5.565v16.696c0,3.073,2.492,5.565,5.565,5.565h33.391c3.073,0,5.565-2.492,5.565-5.565v-16.696
	C44.522,247.362,42.03,244.87,38.957,244.87z M38.957,172.522H5.565c-3.073,0-5.565,2.492-5.565,5.565v16.696
	c0,3.073,2.492,5.565,5.565,5.565h33.391c3.073,0,5.565-2.492,5.565-5.565v-16.696C44.522,175.014,42.03,172.522,38.957,172.522z
	 M506.435,244.87h-33.391c-3.073,0-5.565,2.492-5.565,5.565v16.696c0,3.073,2.492,5.565,5.565,5.565h33.391
	c3.073,0,5.565-2.492,5.565-5.565v-16.696C512,247.362,509.508,244.87,506.435,244.87z M506.435,172.522h-33.391
	c-3.073,0-5.565,2.492-5.565,5.565v16.696c0,3.073,2.492,5.565,5.565,5.565h33.391c3.073,0,5.565-2.492,5.565-5.565v-16.696
	C512,175.014,509.508,172.522,506.435,172.522z M506.435,317.217h-33.391c-3.073,0-5.565,2.492-5.565,5.565v16.696
	c0,3.073,2.492,5.565,5.565,5.565h33.391c3.073,0,5.565-2.492,5.565-5.565v-16.696C512,319.71,509.508,317.217,506.435,317.217z"/>
<path style="fill:#FFF7A9;" d="M333.913,5.565v33.391c0,3.073-2.492,5.565-5.565,5.565h-11.13c-3.073,0-5.565-2.492-5.565-5.565
	V5.565c0-3.073,2.492-5.565,5.565-5.565h11.13C331.421,0,333.913,2.492,333.913,5.565z M256,0h-11.13
	c-3.073,0-5.565,2.492-5.565,5.565v33.391c0,3.073,2.492,5.565,5.565,5.565H256c3.073,0,5.565-2.492,5.565-5.565V5.565
	C261.565,2.492,259.073,0,256,0z M183.652,0h-11.13c-3.073,0-5.565,2.492-5.565,5.565v33.391c0,3.073,2.492,5.565,5.565,5.565h11.13
	c3.073,0,5.565-2.492,5.565-5.565V5.565C189.217,2.492,186.725,0,183.652,0z M328.348,467.478h-11.13
	c-3.073,0-5.565,2.492-5.565,5.565v33.391c0,3.073,2.492,5.565,5.565,5.565h11.13c3.073,0,5.565-2.492,5.565-5.565v-33.391
	C333.913,469.97,331.421,467.478,328.348,467.478z M183.652,467.478h-11.13c-3.073,0-5.565,2.492-5.565,5.565v33.391
	c0,3.073,2.492,5.565,5.565,5.565h11.13c3.073,0,5.565-2.492,5.565-5.565v-33.391C189.217,469.97,186.725,467.478,183.652,467.478z
	 M256,467.478h-11.13c-3.073,0-5.565,2.492-5.565,5.565v33.391c0,3.073,2.492,5.565,5.565,5.565H256
	c3.073,0,5.565-2.492,5.565-5.565v-33.391C261.565,469.97,259.073,467.478,256,467.478z M38.957,311.652H5.565
	c-3.073,0-5.565,2.492-5.565,5.565v11.13c0,3.073,2.492,5.565,5.565,5.565h33.391c3.073,0,5.565-2.492,5.565-5.565v-11.13
	C44.522,314.144,42.03,311.652,38.957,311.652z M38.957,239.304H5.565c-3.073,0-5.565,2.492-5.565,5.565V256
	c0,3.073,2.492,5.565,5.565,5.565h33.391c3.073,0,5.565-2.492,5.565-5.565v-11.13C44.522,241.796,42.03,239.304,38.957,239.304z
	 M38.957,166.957H5.565c-3.073,0-5.565,2.492-5.565,5.565v11.13c0,3.073,2.492,5.565,5.565,5.565h33.391
	c3.073,0,5.565-2.492,5.565-5.565v-11.13C44.522,169.449,42.03,166.957,38.957,166.957z M506.435,311.652h-33.391
	c-3.073,0-5.565,2.492-5.565,5.565v11.13c0,3.073,2.492,5.565,5.565,5.565h33.391c3.073,0,5.565-2.492,5.565-5.565v-11.13
	C512,314.144,509.508,311.652,506.435,311.652z M506.435,166.957h-33.391c-3.073,0-5.565,2.492-5.565,5.565v11.13
	c0,3.073,2.492,5.565,5.565,5.565h33.391c3.073,0,5.565-2.492,5.565-5.565v-11.13C512,169.449,509.508,166.957,506.435,166.957z
	 M506.435,239.304h-33.391c-3.073,0-5.565,2.492-5.565,5.565V256c0,3.073,2.492,5.565,5.565,5.565h33.391
	c3.073,0,5.565-2.492,5.565-5.565v-11.13C512,241.796,509.508,239.304,506.435,239.304z"/>
<g>
</g>
<g>
</g>
<g>
</g>
<g>
</g>
<g>
</g>
<g>
</g>
<g>
</g>
<g>
</g>
<g>
</g>
<g>
</g>
<g>
</g>
<g>
</g>
<g>
</g>
<g>
</g>
<g>
</g>
</svg>
